<svg width="322" height="322" viewBox="0 0 322 322" fill="none" xmlns="http://www.w3.org/2000/svg">
<path d="M1 161C1 72.6344 72.6344 1 161 1C249.366 1 321 72.6344 321 161C321 249.366 249.366 321 161 321C72.6344 321 1 249.366 1 161ZM161 319.373C248.467 319.373 319.373 248.467 319.373 161C319.373 73.5332 248.467 2.62682 161 2.62682C73.5332 2.62682 2.62682 73.5332 2.62682 161C2.62682 248.467 73.5332 319.373 161 319.373Z" fill="#FFA96A" stroke="#FFA96A"/>
<path d="M161 314.6C245.831 314.6 314.6 245.831 314.6 161C314.6 76.1689 245.831 7.3999 161 7.3999C76.1694 7.3999 7.40039 76.1689 7.40039 161C7.40039 245.831 76.1694 314.6 161 314.6Z" fill="white"/>
<g clip-path="url(#clip0_627_49)">
<g clip-path="url(#clip1_627_49)">
<g clip-path="url(#clip2_627_49)">
<g clip-path="url(#clip3_627_49)">
<g clip-path="url(#clip4_627_49)">
<g clip-path="url(#clip5_627_49)">
<g clip-path="url(#clip6_627_49)">
<path d="M56.6593 199.7H54.8545V181.12H58.1722C60.3133 181.12 61.9766 181.575 63.1621 182.485C64.3477 183.398 64.9404 184.668 64.9404 186.296C64.9404 187.924 64.3477 189.194 63.1621 190.107C61.9766 191.017 60.3133 191.472 58.1722 191.472H56.6593V199.7ZM58.1722 181.757H56.6593V190.835H58.1722C61.4104 190.835 63.0294 189.322 63.0294 186.296C63.0294 183.27 61.4104 181.757 58.1722 181.757ZM69.9834 199.7V181.12H73.54C75.4157 181.12 76.8702 181.515 77.9035 182.304C78.9404 183.09 79.4589 184.19 79.4589 185.606C79.4589 186.703 79.1351 187.614 78.4874 188.34C77.8434 189.065 76.9109 189.552 75.6899 189.8V189.959C76.8578 190.189 77.8133 190.737 78.5565 191.604C79.2996 192.471 79.857 193.542 80.2286 194.816C80.5648 195.984 80.8957 196.89 81.2213 197.534C81.5504 198.182 81.9131 198.647 82.3095 198.93C82.7094 199.213 83.1836 199.417 83.7321 199.54V199.7H82.6439C81.8654 199.7 81.223 199.558 80.717 199.275C80.2144 198.992 79.7862 198.514 79.4323 197.842C79.0784 197.169 78.7423 196.24 78.4237 195.055C77.9106 193.232 77.2294 191.941 76.38 191.18C75.5307 190.419 74.4955 190.038 73.2746 190.038H73.1154V189.561H73.2746C76.1234 189.561 77.5479 188.251 77.5479 185.632C77.5479 183.049 76.2119 181.757 73.54 181.757H71.7883V199.7H69.9834ZM95.1983 199.7H87.018V181.12H95.1133V182.421L90.4685 181.81C89.6581 181.704 89.1113 181.651 88.8282 181.651V189.747C89.0547 189.747 89.6014 189.72 90.4685 189.667L94.8267 189.401V190.622L90.4685 190.357C89.6014 190.304 89.0547 190.277 88.8282 190.277V199.169C89.1432 199.169 89.6988 199.116 90.495 199.01L95.1983 198.399V199.7ZM116.347 181.12H118.258V199.7H116.453V182.66H116.294L109.871 194.975H109.048L101.749 184.12H101.59L102.173 199.7H100.369L101.032 180.749H101.563L109.924 193.17H110.083L116.347 181.12ZM126.964 199.7H125.159V181.12H126.964V199.7ZM133.599 192.268V181.12H135.404V192.321C135.404 194.462 135.93 196.129 136.981 197.322C138.035 198.518 139.518 199.116 141.429 199.116C142.632 199.116 143.68 198.88 144.572 198.41C145.467 197.943 146.157 197.293 146.642 196.462C147.13 195.63 147.357 194.674 147.321 193.595L146.87 181.12H148.675L148.224 193.595C148.153 195.718 147.52 197.329 146.323 198.426C145.131 199.523 143.429 200.071 141.217 200.071C138.828 200.071 136.961 199.376 135.616 197.985C134.272 196.598 133.599 194.692 133.599 192.268ZM170.625 181.12H172.536V199.7H170.731V182.66H170.572L164.149 194.975H163.326L156.027 184.12H155.868L156.452 199.7H154.647L155.31 180.749H155.841L164.202 193.17H164.361L170.625 181.12ZM191.641 200.071L183.997 181.12H185.935L192.437 197.364H192.597L196.843 186.853L194.534 181.12H196.472L202.948 197.311H203.107L208.469 181.12H210.406L202.762 200.071H202.178L197.215 187.729L192.225 200.071H191.641ZM216.352 199.7H214.547V181.12H216.352V199.7ZM224.659 199.7H222.854L223.518 180.749H223.836L237.187 196.886H237.346L236.762 181.12H238.567L237.904 200.071H237.585L224.235 183.934H224.075L224.659 199.7ZM253.24 199.7H245.065V181.12H253.16V182.421L248.515 181.81C247.701 181.704 247.153 181.651 246.87 181.651V189.747C247.1 189.747 247.648 189.72 248.515 189.667L252.868 189.401V190.622L248.515 190.357C247.648 190.304 247.1 190.277 246.87 190.277V199.169C247.188 199.169 247.745 199.116 248.542 199.01L253.24 198.399V199.7ZM257.194 199.116L257.354 197.523H257.513C258.203 198.125 258.982 198.594 259.849 198.93C260.716 199.266 261.574 199.434 262.423 199.434C263.626 199.434 264.6 199.102 265.343 198.436C266.086 197.775 266.458 196.886 266.458 195.772C266.458 195.152 266.321 194.577 266.049 194.046C265.773 193.515 265.322 192.976 264.695 192.427C264.065 191.879 263.202 191.286 262.105 190.649C261.344 190.207 260.618 189.741 259.928 189.253C259.238 188.768 258.672 188.202 258.23 187.554C257.787 186.91 257.566 186.137 257.566 185.234C257.566 183.89 258.053 182.805 259.026 181.98C259.999 181.159 261.282 180.749 262.874 180.749C263.582 180.749 264.343 180.825 265.157 180.977C265.971 181.126 266.599 181.315 267.041 181.545L266.909 183.031H266.75C265.741 181.934 264.449 181.386 262.874 181.386C261.742 181.386 260.831 181.672 260.141 182.246C259.45 182.823 259.105 183.598 259.105 184.571C259.105 185.296 259.297 185.919 259.679 186.439C260.057 186.963 260.548 187.432 261.149 187.846C261.751 188.264 262.397 188.667 263.087 189.056C263.883 189.516 264.658 190.003 265.412 190.516C266.162 191.029 266.781 191.643 267.27 192.358C267.755 193.077 267.997 193.976 267.997 195.055C267.997 196.046 267.767 196.916 267.307 197.667C266.847 198.42 266.197 199.01 265.359 199.434C264.516 199.859 263.538 200.071 262.423 200.071C261.715 200.071 260.884 199.983 259.928 199.806C258.973 199.629 258.061 199.399 257.194 199.116Z" fill="#FFA96A"/>
</g>
</g>
</g>
</g>
<g clip-path="url(#clip7_627_49)">
<g clip-path="url(#clip8_627_49)">
<path d="M174.527 135.648C174.407 129.383 172.145 122.78 172.145 122.78H171.35C171.35 122.78 173.418 129.093 173.528 135.084C173.639 141.074 171.5 143.716 168.228 145.602C164.956 147.487 159.89 148.431 155.583 145.602C151.277 142.773 149.72 140.229 149.565 135.846C149.411 131.464 152.217 122.78 152.217 122.78H151.225C151.225 122.78 148.157 131.862 148.326 136.446C148.476 140.527 149.845 143.084 153.467 145.684C153.927 146.013 154.396 146.328 154.875 146.629L154.875 146.632C154.885 146.638 154.896 146.643 154.907 146.649C155.248 146.863 155.601 147.059 155.962 147.238C158.208 148.643 159.535 150.503 160.258 151.833C160.597 152.543 160.833 153.305 160.913 154.115C161.673 161.814 161.478 169.867 159.477 172.515C158.612 173.659 157.353 174.358 156.042 174.779C153.803 174.923 152.36 175.147 152.359 175.401C152.359 175.835 156.608 176.187 161.849 176.187C166.816 176.187 170.889 175.871 171.303 175.468C171.423 175.447 171.487 175.423 171.487 175.401C171.487 175.377 171.422 175.355 171.302 175.333C171.073 175.112 169.739 174.916 167.757 174.786C166.462 174.39 165.221 173.736 164.366 172.605C162.365 169.958 162.463 161.838 162.933 154.116C163.014 152.78 163.486 151.601 164.15 150.582C165.01 149.36 166.302 147.987 168.174 146.939C168.365 146.845 168.551 146.749 168.731 146.649C169.198 146.393 169.652 146.114 170.091 145.812L170.095 145.811L170.092 145.811C172.888 143.877 174.632 141.078 174.527 135.648Z" fill="#FFA96A"/>
<path d="M171.747 136.982C169.517 136.982 167.41 136.47 165.513 135.59C157.167 131.718 150.641 134.708 150.533 134.706C150.496 134.929 150.477 135.155 150.477 135.382C150.477 138.752 152.398 145.875 161.426 145.875C170.584 145.875 172.347 140.824 172.673 136.949C172.366 136.969 172.058 136.982 171.747 136.982Z" fill="#FFA96A"/>
</g>
</g>
</g>
</g>
</g>
<defs>
<clipPath id="clip0_627_49">
<rect width="213.158" height="77.2916" fill="white" transform="translate(54.8467 122.78)"/>
</clipPath>
<clipPath id="clip1_627_49">
<rect width="213.158" height="77.2916" fill="white" transform="translate(54.8467 122.78)"/>
</clipPath>
<clipPath id="clip2_627_49">
<rect width="213.158" height="77.2916" fill="white" transform="translate(54.8467 122.78)"/>
</clipPath>
<clipPath id="clip3_627_49">
<rect width="213.158" height="19.3225" fill="white" transform="translate(54.8467 180.749)"/>
</clipPath>
<clipPath id="clip4_627_49">
<rect width="213.158" height="19.3225" fill="white" transform="translate(54.8467 180.749)"/>
</clipPath>
<clipPath id="clip5_627_49">
<rect width="213.158" height="19.3225" fill="white" transform="translate(54.8467 180.749)"/>
</clipPath>
<clipPath id="clip6_627_49">
<rect width="213.158" height="19.3225" fill="white" transform="translate(54.8467 180.749)"/>
</clipPath>
<clipPath id="clip7_627_49">
<rect width="26.2124" height="53.4075" fill="white" transform="translate(148.319 122.78)"/>
</clipPath>
<clipPath id="clip8_627_49">
<rect width="26.2124" height="53.4075" fill="white" transform="translate(148.319 122.78)"/>
</clipPath>
</defs>
</svg>
