<svg width="27" height="55" viewBox="0 0 27 55" fill="none" xmlns="http://www.w3.org/2000/svg">
<g clip-path="url(#clip0_627_40)">
<g clip-path="url(#clip1_627_40)">
<path d="M26.5273 13.6478C26.4065 7.38274 24.1451 0.779785 24.1451 0.779785H23.3499C23.3499 0.779785 25.4178 7.09289 25.5283 13.0837C25.6387 19.0742 23.4999 21.7163 20.2279 23.602C16.9559 25.4874 11.8904 26.4307 7.58346 23.602C3.27652 20.7733 1.71952 18.2292 1.56495 13.8464C1.41092 9.46394 4.2166 0.779785 4.2166 0.779785H3.225C3.225 0.779785 0.157225 9.86211 0.326057 14.4459C0.47613 18.527 1.84475 21.084 5.46659 23.6836C5.92662 24.0128 6.39643 24.328 6.87537 24.629L6.87484 24.6324C6.88541 24.6379 6.89598 24.6433 6.90655 24.6488C7.24849 24.8626 7.60086 25.0595 7.96234 25.2383C10.2084 26.6428 11.5353 28.5029 12.2577 29.8332C12.5974 30.5426 12.8326 31.3046 12.9126 32.1155C13.6725 39.8141 13.4778 47.8671 11.4766 50.515C10.6119 51.659 9.35263 52.3584 8.0424 52.7788C5.8032 52.9228 4.36006 53.1474 4.35874 53.4007C4.35874 53.8348 8.60782 54.1873 13.849 54.1873C18.8157 54.1873 22.8888 53.871 23.3026 53.4684C23.4225 53.4467 23.487 53.4235 23.487 53.4007C23.487 53.3775 23.4222 53.3548 23.3023 53.3331C23.0735 53.1117 21.7387 52.9162 19.7568 52.7856C18.4624 52.3899 17.2214 51.7365 16.3664 50.6054C14.3653 47.9577 14.463 39.8376 14.9328 32.1157C15.0142 30.7796 15.4855 29.6012 16.1495 28.5819C17.0103 27.3602 18.3015 25.9868 20.1743 24.9389C20.3645 24.8448 20.551 24.7487 20.7312 24.6493C21.1982 24.3933 21.652 24.114 22.0909 23.8123L22.0948 23.8107L22.0925 23.8112C24.8884 21.8769 26.6319 19.0779 26.5273 13.6478Z" fill="#FFA96A"/>
<path d="M23.7468 14.9817C21.5168 14.9817 19.4097 14.4697 17.5127 13.5899C9.16723 9.71836 2.64117 12.7082 2.53258 12.7058C2.49582 12.9293 2.47709 13.1554 2.47656 13.3819C2.47656 16.7517 4.39792 23.8754 13.4256 23.8754C22.584 23.8754 24.3473 18.8242 24.6726 14.9492C24.3661 14.9688 24.058 14.9817 23.7468 14.9817Z" fill="#FFA96A"/>
</g>
</g>
<defs>
<clipPath id="clip0_627_40">
<rect width="26.2124" height="53.4075" fill="white" transform="translate(0.319336 0.779785)"/>
</clipPath>
<clipPath id="clip1_627_40">
<rect width="26.2124" height="53.4075" fill="white" transform="translate(0.319336 0.779785)"/>
</clipPath>
</defs>
</svg>
